<?xml version="1.0" standalone="no"?>
<!DOCTYPE svg PUBLIC "-//W3C//DTD SVG 20010904//EN"
 "http://www.w3.org/TR/2001/REC-SVG-20010904/DTD/svg10.dtd">
<svg version="1.0" xmlns="http://www.w3.org/2000/svg"
 width="159.000000pt" height="139.000000pt" viewBox="0 0 159.000000 139.000000"
 preserveAspectRatio="xMidYMid meet">
<metadata>
Created by saintybalboa
</metadata>
<g transform="translate(0.000000,139.000000) scale(0.100000,-0.100000)"
fill="#000000" stroke="none">
<path d="M30 694 l0 -656 358 5 c299 3 366 7 416 21 79 23 156 58 210 95 25
17 46 31 48 31 2 0 29 -34 59 -75 l54 -74 208 -1 c129 0 207 4 207 10 0 5 -76
108 -170 227 -93 120 -168 224 -165 231 3 8 10 46 16 85 9 59 17 78 43 107 85
91 110 166 104 309 -3 83 -8 103 -33 150 -49 88 -154 158 -275 181 -31 6 -263
10 -566 10 l-514 0 0 -656z m745 326 c52 -36 96 -96 119 -163 25 -73 22 -87
-16 -87 -18 0 -70 -3 -115 -7 l-83 -6 0 156 0 157 26 -10 c14 -6 45 -24 69
-40z m64 -526 c27 -34 27 -37 -11 -79 -28 -32 -121 -95 -140 -95 -5 0 -8 45
-8 100 l0 100 69 0 c63 0 71 -2 90 -26z"/>
</g>
</svg>
